<svg width="37" height="36" viewBox="0 0 37 36" fill="none" xmlns="http://www.w3.org/2000/svg">
<path d="M36.1315 4.83186C35.7707 4.40828 35.2511 4.16458 34.7032 4.16458H8.59401L8.22559 1.91322C8.07444 0.980956 7.28657 0.296265 6.36267 0.296265H2.1116C1.06678 0.296265 0.222229 1.16083 0.222229 2.23042C0.222229 3.30001 1.06678 4.16458 2.1116 4.16458H4.76238L8.2766 25.7575C8.29171 25.8445 8.33517 25.9161 8.36162 25.9973C8.39185 26.0998 8.41641 26.1966 8.46365 26.2894C8.5241 26.417 8.60535 26.5254 8.69037 26.6356C8.74894 26.711 8.80184 26.7865 8.86986 26.8522C8.97944 26.9567 9.10603 27.0302 9.23451 27.1037C9.3063 27.1443 9.36865 27.1984 9.44612 27.2294C9.66528 27.3203 9.89579 27.3745 10.1395 27.3745H30.9244C31.9693 27.3745 32.8138 26.5099 32.8138 25.4403C32.8138 24.3707 31.9693 23.5061 30.9244 23.5061H11.7417L11.4281 21.572H32.8138C33.7547 21.572 34.552 20.8641 34.6843 19.9125L36.5736 6.37338C36.6511 5.81635 36.4886 5.25351 36.1315 4.83186ZM32.5247 8.03289L31.9863 11.9012H25.2563V8.03289H32.5247ZM23.367 8.03289V11.9012H17.6989V8.03289H23.367ZM23.367 13.8354V17.7037H17.6989V13.8354H23.367ZM15.8095 8.03289V11.9012H10.1414C10.0413 11.9012 9.95058 11.9302 9.86178 11.9592L9.22317 8.03289H15.8095ZM10.1679 13.8354H15.8095V17.7037H10.797L10.1679 13.8354ZM25.2563 17.7037V13.8354H31.7142L31.1757 17.7037H25.2563Z" fill="#CE32F5"/>
<path d="M12.9755 35.1111C14.5407 35.1111 15.8095 33.8121 15.8095 32.2098C15.8095 30.6075 14.5407 29.3086 12.9755 29.3086C11.4103 29.3086 10.1414 30.6075 10.1414 32.2098C10.1414 33.8121 11.4103 35.1111 12.9755 35.1111Z" fill="#CE32F5"/>
<path d="M29.9797 35.1111C31.5449 35.1111 32.8138 33.8121 32.8138 32.2098C32.8138 30.6075 31.5449 29.3086 29.9797 29.3086C28.4145 29.3086 27.1457 30.6075 27.1457 32.2098C27.1457 33.8121 28.4145 35.1111 29.9797 35.1111Z" fill="#CE32F5"/>
</svg>
