<svg width="121" height="77" viewBox="0 0 121 77" fill="none" xmlns="http://www.w3.org/2000/svg">
<path d="M55.5464 75.5253C51.0895 71.3763 43.6499 66.9387 36.4448 64.1312C29.1696 61.2959 22.2593 59.7213 14.4136 59.1124C12.8667 58.9935 11.5842 58.8825 11.5637 58.8666C11.5437 58.8666 11.5837 46.0612 11.6637 30.4458L11.7957 2.05522L13.2241 2.16622C21.9949 2.856 31.7842 5.48353 39.191 9.14574C45.5743 12.3013 52.1659 17.1742 56.3684 21.8433L57.426 23.0184V49.9866C57.426 64.8186 57.346 76.9517 57.25 76.9493C57.15 76.9469 56.3846 76.3055 55.5464 75.5253ZM62.812 49.9184V22.8376L64.8544 20.6739C67.4621 17.9116 72.7073 13.7499 76.1756 11.6924C85.447 6.19076 95.5042 3.08196 107.05 2.14639L108.515 2.02747V30.4577V58.8888L106.816 59.0157C90.7388 60.2018 76.8008 65.4608 65.8988 74.4534L62.812 77V49.9184ZM72.773 75.159C79.0831 70.4653 87.4365 66.7357 95.8276 64.8638C100.219 63.8846 105.929 63.2012 109.719 63.2012C111.707 63.2012 112.809 62.8602 113.431 62.0507C113.899 61.4402 113.904 61.1778 113.905 38.1405L113.906 14.8448L114.785 14.9717C115.268 15.0509 116.639 15.3522 117.832 15.6535L120 16.2006V45.2739C120 61.2642 119.92 74.3471 119.821 74.3471C119.721 74.3471 118.272 74.1014 116.598 73.8001C109.984 72.6187 104.536 72.2128 97.3827 72.3658C88.7055 72.5561 81.9618 73.5154 73.9452 75.7117L70.8983 76.5465L72.773 75.159ZM46.0542 75.611C42.725 74.6659 37.2268 73.5519 33.5151 73.0714C28.4683 72.4213 24.9865 72.2485 18.8011 72.3579C12.6553 72.4609 8.9379 72.8019 3.8667 73.7144C2.4487 73.9682 0.9985 74.2298 0.644 74.2853L0 74.3963L0.0011003 45.2453L0.00229955 16.0935L2.7552 15.4593C4.2692 15.1104 5.6399 14.7853 5.801 14.7457C6.034 14.6664 6.094 19.4156 6.094 38.0153C6.094 63.4319 6.024 62.015 7.3918 62.7278C7.8678 62.9736 8.8568 63.0846 11.6811 63.2194C22.9057 63.7268 33.5563 66.7151 42.2513 71.7997C44.1263 72.8962 48.6262 75.9075 48.8841 76.2381C49.0641 76.468 48.9441 76.4442 46.0549 75.6197L46.0542 75.611Z" fill="#CE32F5"/>
<rect x="57" y="22.8889" width="6" height="54.1111" fill="#CE32F5"/>
<path d="M69.2628 25.5561L66.7211 25.0609C66.3939 24.9833 66.0716 25.0077 65.7583 25.1338C65.4439 25.26 65.2316 25.4495 65.1225 25.702L49.8353 63.3112C49.7262 63.5637 49.7604 63.8019 49.938 64.0249C50.1156 64.2484 50.3815 64.3989 50.7373 64.4764L53.2782 64.9719C53.6061 65.0501 53.9272 65.0256 54.2414 64.8993C54.5558 64.7724 54.7677 64.5836 54.8767 64.3315L70.1642 26.7217C70.2732 26.4693 70.2393 26.2311 70.0615 26.0075C69.8837 25.7841 69.618 25.6336 69.2628 25.5561Z" fill="#280838"/>
<path d="M46.353 32.8977C46.353 32.6453 46.2162 32.4217 45.943 32.2277L43.8936 30.771C43.6204 30.5768 43.306 30.4795 42.9509 30.4795C42.5957 30.4795 42.2812 30.5769 42.0082 30.771L22.9098 44.3463C22.6362 44.5405 22.4998 44.7639 22.4998 45.0164C22.4998 45.2688 22.6366 45.4922 22.9098 45.6863L42.008 59.2616C42.2811 59.4561 42.595 59.5528 42.9507 59.5528C43.3064 59.5528 43.6204 59.4558 43.8934 59.2616L45.9429 57.8057C46.2161 57.6117 46.3529 57.3881 46.3529 57.1354C46.3529 56.8832 46.2161 56.6598 45.9429 56.4657L29.8362 45.0164L45.943 33.5678C46.2166 33.3737 46.353 33.1502 46.353 32.8977Z" fill="#280838"/>
<path d="M97.0901 44.3459L77.9913 30.7706C77.7183 30.5766 77.4038 30.4791 77.0492 30.4791C76.6935 30.4791 76.3801 30.5766 76.1061 30.7706L74.0575 32.2272C73.7844 32.4214 73.6482 32.6445 73.6482 32.8973C73.6482 33.15 73.7843 33.3733 74.0575 33.5673L90.1646 45.0162L74.0575 56.4656C73.7844 56.6597 73.6482 56.8833 73.6482 57.1353C73.6482 57.3882 73.7843 57.6116 74.0575 57.8057L76.1061 59.2615C76.3801 59.456 76.6936 59.5527 77.0492 59.5527C77.4039 59.5527 77.7183 59.4557 77.9913 59.2615L97.0901 45.6864C97.3633 45.4923 97.4998 45.2684 97.4998 45.016C97.4998 44.7635 97.3633 44.54 97.0901 44.3459Z" fill="#280838"/>
</svg>
