<svg width="48" height="48" viewBox="0 0 48 48" fill="none" xmlns="http://www.w3.org/2000/svg">
<path d="M24 47.9C10.8 47.9 0.100006 37.2 0.100006 24C0.100006 10.8 10.8 0.0999756 24 0.0999756C37.2 0.0999756 47.9 10.8 47.9 24C47.9 37.2 37.2 47.9 24 47.9ZM24 2.69998C12.3 2.69998 2.70001 12.3 2.70001 24C2.70001 35.7 12.3 45.3 24 45.3C35.7 45.3 45.3 35.7 45.3 24C45.3 12.3 35.7 2.69998 24 2.69998Z" fill="#CE32F5"/>
<path d="M10 41.2999L7.60001 40.1999C8.30001 38.4999 10.5 37.5999 13 36.4999C15.4 35.3999 18.4 34.0999 18.4 32.4999V30.2999C17.5 29.5999 16.1 27.9999 15.9 25.6999C15.2 24.9999 14.1 23.6999 14.1 22.0999C14.1 21.0999 14.5 20.2999 14.8 19.7999C14.6 18.6999 14.2 16.4999 14.2 14.7999C14.2 9.29994 18 5.69995 24 5.69995C25.7 5.69995 27.8 6.19993 28.9 7.39993C31.6 7.89993 33.8 11.0999 33.8 14.7999C33.8 17.1999 33.4 19.1999 33.1 20.0999C33.4 20.5999 33.7 21.2999 33.7 22.0999C33.7 23.9999 32.8 25.1999 31.9 25.7999C31.7 28.0999 30.4 29.5999 29.6 30.2999V32.4999C29.6 33.8999 32.1 34.7999 34.4 35.6999C37.1 36.6999 39.9 37.6999 40.8 39.9999L38.3 40.8999C37.9 39.6999 35.5 38.8999 33.5 38.0999C30.4 36.9999 26.9 35.6999 26.9 32.4999V28.8999L27.5 28.4999C27.6 28.4999 29.3 27.2999 29.3 24.9999V24.0999L30.1 23.7999C30.2 23.6999 31 23.2999 31 22.0999C31 21.6999 30.7 21.2999 30.6 21.1999L30.1 20.5999L30.3 19.8999C30.3 19.8999 31 17.6999 31 14.6999C31 12.1999 29.6 9.89993 28.1 9.89993H27.3L26.9 9.19995C26.6 8.69995 25.4 8.19995 23.8 8.19995C19.3 8.19995 16.6 10.5999 16.6 14.6999C16.6 16.5999 17.3 19.6999 17.3 19.6999L17.5 20.3999L17 20.8999C17 20.8999 16.6 21.3999 16.6 21.8999C16.6 22.5999 17.5 23.4999 17.9 23.8999L18.4 24.2999V24.9999C18.4 27.1999 20.3 28.3999 20.3 28.3999L20.9 28.7999V32.3999C20.9 35.6999 17.2 37.3999 13.9 38.7999C12.5 39.5999 10.4 40.5999 10 41.2999Z" fill="#CE32F5"/>
</svg>
